<svg width="32" height="32" viewBox="0 0 32 32" fill="none" xmlns="http://www.w3.org/2000/svg"><path d="M13.8666 3.19995c-6.47996 0-11.7333 4.77547-11.7333 10.66665 0 3.0257 1.39534 5.747 3.62292 7.6854-.31952 1.0464-.98601 2.0871-2.21042 3.0146-.00069.0007-.00139.0014-.00208.0021-.10099.0384-.18793.1066-.24932.1955-.06138.0889-.09431.1944-.09443.3024 0 .1415.05619.2771.15621.3771.10002.1001.23567.1563.37712.1563.03644-.0005.07275-.0047.10833-.0125 2.06941-.0061 3.83508-.89 5.23959-1.998.6665.2711 1.36228.4946 2.08748.65-.3242-.9173-.5021-1.8939-.5021-2.9062 0-5.2939 4.7851-9.6 10.6667-9.6 1.4741 0 2.8794.2708 4.1583.7604-.7424-5.2416-5.658-9.29375-11.625-9.29375Zm7.4667 10.66665c-2.2632 0-4.4337.7867-6.034 2.187C13.699 17.4538 12.8 19.353 12.8 21.3333c0 1.9803.899 3.8794 2.4993 5.2797 1.6003 1.4003 3.7708 2.187 6.034 2.187 1.0911-.0016 2.1717-.1861 3.1833-.5438 1.3082.9138 2.8912 1.5916 4.7042 1.5979.037.0082.0747.0124.1125.0125.1415 0 .2771-.0562.3771-.1562.1-.1.1562-.2357.1562-.3771-.0001-.1092-.0338-.2156-.0964-.305-.0626-.0894-.1511-.1575-.2536-.195-.9762-.7412-1.6018-1.557-1.977-2.3875 1.4913-1.3828 2.3235-3.2113 2.327-5.1125 0-1.9803-.899-3.8795-2.4993-5.2797-1.6003-1.4003-3.7708-2.187-6.034-2.187Z" fill="#AA131D"></path></svg>