<svg width="56" height="56" fill="none" xmlns="http://www.w3.org/2000/svg"><path d="M28.14 0C12.664 0 0 12.663 0 28.14 0 43.619 12.663 56 27.86 56 43.054 56 56 43.618 56 28.14 56 12.664 43.337 0 28.14 0ZM3.096 28.14c0-13.788 11.257-24.763 24.764-24.763 6.754 0 12.945 2.814 17.447 7.317l-10.13 8.723-1.689-1.688v-4.503c0-.844-.562-1.407-1.407-1.407h-8.723c-.844 0-1.407.563-1.407 1.407v4.221l-4.221 5.066c-.282.281-.282.562-.282 1.125v11.82l-9.005 7.879A24.366 24.366 0 0 1 3.095 28.14Zm27.578-11.537h-5.628v-1.688h5.628v1.688Zm-6.472 3.095h4.784l-1.97 2.252h-4.784l1.97-2.252Zm-3.94 5.347h6.191v13.79h-6.19v-13.79Zm9.287-1.407 2.814-3.377 3.377 3.659v14.914h-6.191V23.638ZM28.14 52.904c-7.035 0-13.226-2.814-17.729-7.316l7.035-6.191v1.126c0 .844.563 1.407 1.407 1.407h18.573c.844 0 1.407-.563 1.407-1.407V23.357c0-.282-.281-.844-.563-1.126l-.844-.844 10.13-8.724a24.366 24.366 0 0 1 5.347 15.196c0 14.07-11.256 25.045-24.763 25.045Z" fill="#A26500"/></svg>