<svg width="57" height="56" fill="none" xmlns="http://www.w3.org/2000/svg"><path d="M47.88 8.12C36.91-2.846 19.193-2.565 8.225 8.12c-10.968 10.969-10.968 28.686 0 39.654 10.968 10.968 28.685 10.968 39.653 0s10.968-28.685 0-39.653Zm-37.404 2.532c9.562-9.562 25.31-9.562 34.872 0l-7.874 7.03h-3.656c.843-2.25.281-5.061-1.406-6.749l-4.219-4.5-4.218 4.219c-1.688 1.687-2.25 4.5-1.406 6.75h-5.063V35.4l-8.999 7.874c-7.593-9.843-6.75-23.904 1.969-32.622Zm25.31 14.061c0 1.688-1.406 3.375-3.374 3.375h-2.813v-3.937c0-1.688 1.407-3.094 3.094-3.094h2.812l.281 3.656ZM20.32 35.4v-4.218h2.812c1.687 0 3.094 1.406 3.375 3.374v4.219h-2.813c-1.968-.282-3.374-1.688-3.374-3.375Zm0-14.624h2.812c1.687 0 3.094 1.406 3.094 3.094v3.937h-2.813c-1.687 0-3.374-1.406-3.374-3.375v-3.656h.28Zm9.843-3.093-1.969 2.53-1.968-2.53c-1.125-1.125-1.125-3.375 0-4.5l1.968-1.969 1.969 1.969c1.125 1.125 1.125 3.093 0 4.5Zm-.281 16.873c0-1.687 1.406-3.093 3.374-3.374h2.813V35.4c0 1.687-1.407 3.093-3.375 3.375H29.88v-4.219Zm15.748 10.968c-9.561 9.562-25.31 9.562-34.872 0l7.593-6.75c1.125 1.688 3.094 2.813 5.343 2.813h2.813v5.343h3.375v-5.343h2.812c3.656 0 6.468-2.812 6.468-6.468V20.214l8.718-7.593c7.312 10.124 6.468 24.185-2.25 32.903Z" fill="#A26500"/></svg>