<svg width="55" height="56" fill="none" xmlns="http://www.w3.org/2000/svg"><path d="M53.467 42.774c-1.125-1.97-4.784-4.784-10.13-2.814-1.689-5.066-6.191-9.005-11.538-9.568.281-4.503 1.97-8.442 3.94-11.256h1.125c2.252 0 4.784-.845 7.036-2.814 3.94-3.377 5.065-13.227 5.065-14.352L49.246 0l-1.97.281c-1.125 0-9.849.845-13.789 3.94-4.22 3.377-5.065 9.005-2.25 12.382.28.563.843.844 1.406 1.126-.844 1.407-1.97 3.377-2.532 5.065-1.126-2.533-2.533-5.065-4.222-7.035 1.97-3.096 1.408-7.88-1.688-11.256C21.105 1.407 11.256.28 10.131.28L8.16 0l.281 1.97c0 1.125 1.126 9.85 4.221 13.507 1.689 1.97 3.94 3.096 6.191 3.659.563 0 1.126.281 1.689.281 1.125 0 2.532-.281 3.377-.844 2.532 3.377 4.783 7.316 5.065 12.1-3.658.282-6.754 2.252-9.287 4.784-1.125-.844-2.814-1.688-5.346-1.688-3.94 0-6.473 1.97-7.598 2.814H1.407C.563 36.583 0 37.146 0 37.99V52.905h1.688s10.694 0 18.01 1.97C22.232 55.718 25.046 56 27.86 56c8.442 0 17.166-3.658 25.608-10.975l.845-.844-.845-1.407ZM33.77 14.914c-1.689-1.97-.844-5.628 1.97-7.879 1.97-1.688 7.035-2.814 10.13-3.095-.563 3.94-1.97 9.005-3.658 10.412-1.126 1.125-2.533 1.688-3.94 1.97 1.689-1.97 3.096-3.377 4.221-3.94.563-.281.845-.563.845-.844.563-.563.563-1.689 0-2.252-.563-.562-1.689-.562-2.252 0l-.562.563c-1.126 1.126-3.377 3.096-5.629 5.91-.562-.282-.844-.563-1.125-.844ZM19.417 16.04c-1.688-.281-3.095-1.125-4.502-2.532-1.689-1.97-2.814-6.754-3.377-9.85 3.94.563 9.005 1.689 10.412 3.659 1.97 2.25 2.532 4.784 1.688 6.753-1.688-1.688-3.095-3.095-4.22-3.94l-.845-.844c-.563-.562-1.689-.562-2.251 0-.563.563-.563 1.689 0 2.252l.844.844c1.125.844 2.532 2.251 3.94 3.658 0 .282-.845.282-1.689 0Zm10.694 17.447c5.065 0 9.005 3.377 10.412 7.88-1.126.563-1.97 1.126-2.815 1.407-3.376-5.066-7.598-5.066-10.693-4.784-1.407 0-2.533 0-3.377-.282-.563-.28-1.125-.562-1.407-.562 1.97-2.252 4.784-3.659 7.88-3.659ZM20.26 51.78c-6.19-1.689-14.07-1.97-17.447-1.97v-10.13h5.347l.563-.563s1.97-2.252 5.628-2.252c1.97 0 2.814.563 4.22 1.689 1.127.844 2.252 1.688 4.222 2.251 1.407.563 3.095.281 4.503.281 2.813-.281 5.065-.281 7.316 2.815-3.377.844-7.035.844-12.663 0-.845-.282-1.689.28-1.689 1.125-.281.844.282 1.689 1.126 1.689 10.412 1.688 15.196.281 21.668-3.377 3.377-1.97 5.628-1.126 6.473 0-9.568 8.442-19.418 11.256-29.267 8.442Z" fill="#A26500"/></svg>