<svg width="43" height="56" fill="none" xmlns="http://www.w3.org/2000/svg"><path d="M21.072 56C8.948 56 0 47.917 0 37.237c0-6.928 2.31-10.969 4.619-15.01 1.154-1.732 2.02-3.464 2.886-5.485.866-1.732 1.443-3.464 2.02-4.907C11.836 5.773 14.146 0 21.073 0 28.29 0 30.31 5.485 32.33 11.258c.577 1.443 1.154 3.175 2.02 4.907.867 2.02 1.733 3.753 2.887 5.485 2.598 4.618 5.196 9.525 5.196 15.587C42.144 47.917 33.196 56 21.073 56Zm0-52.536c-4.33 0-5.773 3.175-8.371 9.526-.577 1.732-1.155 3.464-2.02 5.196-.867 2.02-2.021 3.752-2.887 5.773-2.31 4.041-4.33 7.216-4.33 13.278 0 8.66 7.505 15.3 17.608 15.3 10.103 0 17.608-6.64 17.608-15.3 0-5.196-2.309-9.526-4.618-13.856-.866-1.732-2.02-3.752-2.887-5.773-.866-1.732-1.443-3.464-2.02-4.907-2.31-6.35-3.464-9.237-8.083-9.237Z" fill="#A26500"/><path d="M21.072 45.608A10.349 10.349 0 0 1 10.68 35.217a10.349 10.349 0 0 1 10.392-10.392 10.349 10.349 0 0 1 10.391 10.392c.29 5.484-4.618 10.391-10.391 10.391Zm0-17.608c-3.753 0-6.928 3.175-6.928 6.928 0 3.752 3.175 6.928 6.928 6.928 3.752 0 6.928-3.176 6.928-6.928C28 31.175 25.113 28 21.072 28Z" fill="#A26500"/></svg>