<svg width="56" height="56" fill="none" xmlns="http://www.w3.org/2000/svg"><path d="M27.86 0C12.381 0 0 12.663 0 28.14 0 43.619 12.663 56 27.86 56c15.477 0 27.859-12.663 27.859-27.86C55.719 12.946 43.337 0 27.859 0Zm0 3.095c6.753 0 12.944 2.815 17.447 7.317L32.642 21.668V14.914c.844 0 1.407-.562 1.407-1.406 0-.845-.563-1.97-1.407-1.97h-10.13c-.845 0-1.408.563-1.408 1.407 0 .844.563 1.407 1.408 1.407v5.91c0 .28 0 .843-.282 1.125L15.76 36.3 8.16 43.337c-3.377-4.221-5.066-9.568-5.066-15.196 0-13.79 10.975-25.046 24.764-25.046Zm-5.066 24.483 1.97-4.503c.281-.844.563-1.688.563-2.532v-5.91h4.22v5.91c0 .844.282 1.97.564 2.814l2.25 4.22h-9.567Zm5.065 25.326c-7.035 0-13.226-2.814-17.728-7.316l3.658-3.377c.563 1.126 1.407 1.97 2.814 1.97H39.96c.563 0 .844-.281 1.407-.844l.563-.563a2.556 2.556 0 0 0 0-2.814L36.3 29.266l-2.25-4.784 13.507-11.819a24.366 24.366 0 0 1 5.346 15.196c-.28 14.07-11.256 25.045-25.045 25.045Z" fill="#A26500"/></svg>