<svg width="56" height="56" fill="none" xmlns="http://www.w3.org/2000/svg"><path d="M55.61 1.806c0-.85-.85-1.7-1.7-1.7-5.1-.283-10.2 0-15.301.85-11.335 1.417-19.553 4.818-24.653 9.918-7.934 7.934-8.501 20.97-1.134 29.753L.638 52.812c-.85.85-.85 1.984 0 2.55.85.85 1.983.85 2.55 0l12.185-12.184c8.784 7.367 21.535 6.8 29.753-1.134 5.1-5.1 8.5-13.318 9.918-24.652.283-5.384.566-10.485.566-15.586ZM42.01 39.494c-6.517 6.517-17.285 7.084-24.37 1.133l3.4-3.4h12.185c.85 0 1.7-.85 1.7-1.7 0-1.134-.85-1.984-1.7-1.984h-8.5l7.934-7.934h12.184c1.134 0 1.7-.85 1.984-1.7 0-1.133-.85-1.7-1.7-1.984h-8.501l8.5-8.5c.851-.85.851-1.984 0-2.55-.85-.851-1.983-.851-2.55 0l-8.5 8.5v-8.5c0-1.134-.85-1.701-1.984-1.701-.85 0-1.7.85-1.7 1.7V23.06l-7.934 7.934v-8.5c0-1.134-.85-1.701-1.7-1.984-1.134 0-1.7.85-1.984 1.7v12.184l-3.4 3.4c-5.951-7.367-5.384-17.851 1.133-24.369C24.44 5.49 40.876 3.507 52.21 3.507c-.283 6.234-.85 26.636-10.201 35.987Z" fill="#A26500"/></svg>