<svg width="32" height="32" viewBox="0 0 32 32" fill="none" xmlns="http://www.w3.org/2000/svg"><path d="M6.39994 4.2666c-1.17867 0-2.13334.95467-2.13334 2.13334V25.5999c0 1.1787.95467 2.1334 2.13334 2.1334h1.66041c-.36693-.6304-.59375-1.3526-.59375-2.1334V6.39994c0-.7808.22682-1.50294.59375-2.13334H6.39994Zm5.33336 0c-1.1787 0-2.13336.95467-2.13336 2.13334V25.5999c0 1.1787.95466 2.1334 2.13336 2.1334h13.8666c1.1787 0 2.1334-.9547 2.1334-2.1334V6.39994c0-1.17867-.9547-2.13334-2.1334-2.13334H11.7333Zm6.9333 4.26667c2.3531 0 4.2667 1.91363 4.2667 4.26663 0 1.8294-1.142 2.8843-2.0604 3.7334-.7062.6517-1.1396 1.0794-1.1396 1.6h-2.1334c0-1.4816 1.0122-2.4168 1.825-3.1688.8523-.7872 1.375-1.3123 1.375-2.1646 0-1.1765-.9568-2.1333-2.1333-2.1333-1.1765 0-2.1333.9568-2.1333 2.1333h-2.1334c0-2.353 1.9136-4.26663 4.2667-4.26663Zm.0042 12.42503c.9962 0 1.5958.5348 1.5958 1.45 0 .8992-.5996 1.4333-1.5958 1.4333-1.0048 0-1.6042-.5341-1.6042-1.4333 0-.9152.5994-1.45 1.6042-1.45Z" fill="#AA131D"></path></svg>