<svg xmlns="http://www.w3.org/2000/svg" width="30" height="30" viewBox="0 0 30 30">
    <g fill="none" fill-rule="nonzero">
        <path fill="#4D4D4D" d="M14.17 21.715a9.694 9.694 0 0 1-4.62-1.629l-2.41 5.56a.094.094 0 0 0 .11.127l2.472-.694a.75.75 0 0 1 .822.3l1.493 2.186a.094.094 0 0 0 .166-.022l1.968-5.828zm-5.834-2.598A9.723 9.723 0 0 1 5.25 12c0-5.385 4.365-9.75 9.75-9.75s9.75 4.365 9.75 9.75c0 2.66-1.065 5.07-2.791 6.83l2.698 6.218a1.594 1.594 0 0 1-1.893 2.17l-1.953-.55-1.19 1.743a1.594 1.594 0 0 1-2.826-.389l-1.585-4.695-1.586 4.695a1.594 1.594 0 0 1-2.826.389l-1.19-1.742-1.952.548a1.594 1.594 0 0 1-1.893-2.169l2.573-5.93zm12.434.743a9.698 9.698 0 0 1-4.536 1.813l1.982 5.87a.094.094 0 0 0 .167.022l1.492-2.187a.75.75 0 0 1 .823-.299l2.471.694a.094.094 0 0 0 .111-.128l-2.51-5.785zm-5.77.39a8.25 8.25 0 1 0 0-16.5 8.25 8.25 0 0 0 0 16.5zm0-1.5a6.75 6.75 0 1 1 0-13.5 6.75 6.75 0 0 1 0 13.5zm0-1.5a5.25 5.25 0 1 0 0-10.5 5.25 5.25 0 0 0 0 10.5z"/>
        <path fill="#E62131" d="M13.367 15.155a.5.5 0 0 1-.716-.52l.26-1.802-1.27-1.305a.5.5 0 0 1 .274-.841l1.793-.31.85-1.61a.5.5 0 0 1 .884 0l.85 1.61 1.793.31a.5.5 0 0 1 .274.841l-1.27 1.305.26 1.802a.5.5 0 0 1-.716.52L15 14.352l-1.633.803"/>
    </g>
</svg>
