<svg xmlns="http://www.w3.org/2000/svg" width="30" height="30" viewBox="0 0 30 30">
    <g fill="none" fill-rule="nonzero">
        <path fill="#4D4D4D" d="M22.162 27.571a.5.5 0 0 0-.695.56l-.207-.97.902.41zm-2.627-8.518l1.467-.312 1.932 9.078a1 1 0 0 1-1.392 1.118L15 25.966 8.511 28.93a1 1 0 0 1-1.394-1.118l1.916-9.006 1.468.313-1.71 8.034 5.586-2.552a1.5 1.5 0 0 1 1.243-.002l5.64 2.562-1.725-8.11zm-10.95 9.072a.5.5 0 0 0-.697-.559l.903-.412-.207.971zm-.697-.559a.5.5 0 0 1 .696.56l.207-.972-.903.412zm6.489-2.964a1.5 1.5 0 0 1 1.243-.002l5.64 2.562-1.725-8.11 1.467-.311 1.932 9.078a1 1 0 0 1-1.392 1.118L15 25.966 8.511 28.93a1 1 0 0 1-1.394-1.118l1.916-9.006 1.468.313-1.71 8.034 5.586-2.552zm7.785 2.97a.5.5 0 0 0-.695.559l-.207-.97.902.41zM15 21.75c-5.385 0-9.75-4.365-9.75-9.75S9.615 2.25 15 2.25s9.75 4.365 9.75 9.75-4.365 9.75-9.75 9.75zm0-1.5a8.25 8.25 0 1 0 0-16.5 8.25 8.25 0 0 0 0 16.5zm0-1.2a7.05 7.05 0 1 1 0-14.1 7.05 7.05 0 0 1 0 14.1zm0-1.5a5.55 5.55 0 1 0 0-11.1 5.55 5.55 0 0 0 0 11.1z"/>
        <path fill="#E62131" d="M13.297 15.096a.5.5 0 0 1-.716-.52l.27-1.878-1.322-1.36a.5.5 0 0 1 .273-.842l1.87-.324.886-1.678a.5.5 0 0 1 .884 0l.886 1.678 1.87.324a.5.5 0 0 1 .273.841l-1.323 1.361.27 1.879a.5.5 0 0 1-.715.52L15 14.258l-1.703.837"/>
    </g>
</svg>
