<svg xmlns="http://www.w3.org/2000/svg" width="30" height="30" viewBox="0 0 30 30">
    <g fill="none" fill-rule="nonzero">
        <path fill="#4D4D4D" d="M14.012 22.186l-1.24.469a2.437 2.437 0 0 1-2.987-1.086l-.495-.88-2.15 4.956a.094.094 0 0 0 .11.128l2.472-.694a.75.75 0 0 1 .822.3l1.493 2.186a.094.094 0 0 0 .166-.022l1.809-5.357zm-5.79-2.806l-1.821-.622a2.438 2.438 0 0 1-1.604-2.774l.374-1.916a.937.937 0 0 0-.118-.666l-1.014-1.673a2.437 2.437 0 0 1 .559-3.165l1.54-1.236a.938.938 0 0 0 .34-.582l.312-1.942a2.437 2.437 0 0 1 2.446-2.049l2.022.033a.938.938 0 0 0 .625-.226l1.53-1.312a2.438 2.438 0 0 1 3.174 0l1.53 1.312c.174.15.396.23.625.226l2.022-.033a2.438 2.438 0 0 1 2.446 2.05l.313 1.941c.037.23.157.437.339.582l1.54 1.236a2.437 2.437 0 0 1 .56 3.165l-1.015 1.673a.938.938 0 0 0-.118.666l.374 1.916a2.437 2.437 0 0 1-1.604 2.774l-1.456.498 2.514 5.792a1.594 1.594 0 0 1-1.893 2.17l-1.953-.55-1.19 1.743a1.594 1.594 0 0 1-2.826-.389l-1.585-4.695-1.586 4.695a1.594 1.594 0 0 1-2.826.389l-1.19-1.742-1.952.548a1.594 1.594 0 0 1-1.893-2.169l2.459-5.668zm12.725.887l-.732 1.302a2.437 2.437 0 0 1-2.987 1.086l-.759-.287 1.747 5.175a.094.094 0 0 0 .167.022l1.492-2.187a.75.75 0 0 1 .823-.299l2.471.694a.094.094 0 0 0 .111-.128l-2.333-5.378zm-5.085.267l1.897.718a.938.938 0 0 0 1.149-.418l.975-1.736c.294-.522.77-.918 1.337-1.112l1.894-.647a.937.937 0 0 0 .617-1.067l-.375-1.917a2.437 2.437 0 0 1 .308-1.731l1.015-1.673a.937.937 0 0 0-.215-1.217l-1.541-1.236a2.437 2.437 0 0 1-.881-1.513l-.313-1.942a.938.938 0 0 0-.941-.788l-2.022.033c-.595.01-1.174-.2-1.626-.587l-1.53-1.312a.938.938 0 0 0-1.22 0L12.86 3.7a2.438 2.438 0 0 1-1.626.587l-2.022-.033a.937.937 0 0 0-.94.788l-.314 1.942a2.437 2.437 0 0 1-.88 1.513L5.535 9.734a.937.937 0 0 0-.215 1.217l1.015 1.673c.314.519.424 1.136.308 1.731l-.375 1.917c-.09.46.173.915.617 1.067l1.894.647c.567.194 1.043.59 1.337 1.112l.975 1.736a.938.938 0 0 0 1.15.418l1.896-.718c.555-.21 1.169-.21 1.724 0zM15 19.188c-4.15 0-7.52-3.307-7.52-7.393 0-4.087 3.37-7.393 7.52-7.393 4.15 0 7.52 3.306 7.52 7.393 0 4.086-3.37 7.393-7.52 7.393zm0-1.5c3.327 0 6.02-2.642 6.02-5.893 0-3.252-2.693-5.893-6.02-5.893-3.327 0-6.02 2.641-6.02 5.893 0 3.251 2.693 5.893 6.02 5.893z"/>
        <path fill="#E62131" d="M13.194 14.862a.422.422 0 0 1-.6-.441l.284-1.945-1.397-1.41a.422.422 0 0 1 .23-.714l1.98-.336.937-1.743a.422.422 0 0 1 .744 0l.936 1.743 1.982.336c.336.058.47.47.229.713l-1.397 1.41.285 1.946a.422.422 0 0 1-.6.44L15 13.992l-1.806.87"/>
    </g>
</svg>
