<svg width="53" height="56" fill="none" xmlns="http://www.w3.org/2000/svg"><g clip-path="url(#a)" fill="#A26500"><path d="M0 37.512a1.664 1.664 0 0 1 1.75-.874h1.467c.846 0 1.185.254 1.354 1.071a4.817 4.817 0 0 0 1.27 2.536 5.388 5.388 0 0 0 3.911 1.479 5.396 5.396 0 0 0 3.793-1.76 5.633 5.633 0 0 0 .564-6.51 4.426 4.426 0 0 0-3.132-1.889 6.187 6.187 0 0 1-1.609-.254 1.101 1.101 0 0 1-.903-.986 9.487 9.487 0 0 1 0-2 1.183 1.183 0 0 1 1.073-1.072 6.186 6.186 0 0 0 2.822-.817 4.314 4.314 0 0 0 1.834-4.425 4.027 4.027 0 0 0-3.104-3.523 4.774 4.774 0 0 0-4.12.817 3.607 3.607 0 0 0-1.326 2.058 5.631 5.631 0 0 0 0 .733 1.212 1.212 0 0 1-1.327.986H2.23a1.326 1.326 0 0 1-1.213-1.522c.301-1.51.917-2.94 1.806-4.2a7.59 7.59 0 0 1 4.797-3.268 10 10 0 0 1 6.151.535 8.183 8.183 0 0 1 5.08 6.454 8.446 8.446 0 0 1-1.157 6.088 11.278 11.278 0 0 1-1.835 2c.715.56 1.36 1.203 1.92 1.917a9.012 9.012 0 0 1 1.608 4.312 9.46 9.46 0 0 1-1.552 6.454 9.28 9.28 0 0 1-6.123 4.03c-2.336.548-4.79.27-6.942-.789A8.183 8.183 0 0 1 .367 39.88c0-.225 0-.507-.367-.648v-1.72ZM7.591 56v-.226c0-.084 0-.789.649-.676.649.113.395 0 .395-.395v-5.636c0-.31 0-.367-.423-.367-1.383 0-1.383 0-1.383 1.297v2.142c0 .704 0 .563.508.507.508-.056.593 0 .536.507-.056.508 0 .395-.395.395H6.265c-.367 0-.621 0-.565-.62a3.274 3.274 0 0 1-3.16.62A2.821 2.821 0 0 1 .96 52.28a3.463 3.463 0 0 1 .31-3.608c1.298-1.352 2.399-1.465 4.43-.338-.14-.705.339-.648.79-.648h2.568c.847 0 .706 0 .79.733a2.823 2.823 0 0 1 2.23-.846 2.825 2.825 0 0 1 2.897 2.305c.082.444.056.9-.076 1.33a2.816 2.816 0 0 1-1.947 2.368 2.825 2.825 0 0 1-2.567-.31s-.198-.197-.34 0c-.14.197 0 .197 0 .338v.846c0 .76 0 .76.763.873.17 0 .254 0 .254.254a4.973 4.973 0 0 0 0 .648L7.59 56Zm-5.644-5.44a1.774 1.774 0 0 0 1.806 2.002 1.92 1.92 0 0 0 1.976-2.03 1.83 1.83 0 0 0-1.947-2.029 1.807 1.807 0 0 0-1.863 2.057h.028Zm11.683 0a1.83 1.83 0 0 0-1.835-2 1.894 1.894 0 0 0-1.84 1.25c-.09.249-.127.514-.107.779a1.943 1.943 0 0 0 1.891 2.029 1.95 1.95 0 0 0 1.773-1.337c.082-.25.112-.515.09-.777l.028.056Z"/><path d="M14.645 56v-.451c0-.367 0-.507.452-.451.451.056.564-.141.564-.564v-5.44c0-.394 0-.563-.508-.506-.508.056-.508-.17-.536-.564-.028-.395.17-.48.508-.451.338.028.678.028 1.016 0 .508 0 .79 0 .62.733a6.268 6.268 0 0 1 1.242-.705 2.825 2.825 0 0 1 3.358 1.071 3.126 3.126 0 0 1 .197 3.354 2.818 2.818 0 0 1-3.144 1.595 2.825 2.825 0 0 1-1.145-.524c-.338-.197-.338-.113-.338.169v1.494c0 .169 0 .366.254.31.79-.17.903.31.874.93h-3.414Zm5.982-5.496a1.856 1.856 0 0 0-1.115-1.847 1.864 1.864 0 0 0-.747-.154 1.948 1.948 0 0 0-1.975 2.03 2.056 2.056 0 0 0 1.947 2.029 1.95 1.95 0 0 0 1.78-1.292 1.94 1.94 0 0 0 .11-.766ZM38.066 43.796v-1.719c0-.563 0-.535.508-.62a11.29 11.29 0 0 0 5.644-3.213 11.1 11.1 0 0 0 3.132-5.974 11.625 11.625 0 0 0-2.201-9.357 11.29 11.29 0 0 0-7.337-4.397 11.103 11.103 0 0 0-9.17 2.48 11.72 11.72 0 0 0-4.092 7.187 11.007 11.007 0 0 0 1.862 8.455 11.513 11.513 0 0 0 6.519 4.65c.395 0 .564.254.536.677v3.55c0 .339 0 .452-.452.395a15.815 15.815 0 0 1-5.192-1.916 15.762 15.762 0 0 1-6.829-7.356 17.396 17.396 0 0 1-1.241-8.455 14.248 14.248 0 0 1 1.693-5.411 16.529 16.529 0 0 1 8.606-7.75 15.906 15.906 0 0 1 4.402-.93c3.946-.373 7.89.712 11.089 3.05a16.175 16.175 0 0 1 6.266 9.632 15.483 15.483 0 0 1-2.822 13.049 16.312 16.312 0 0 1-9.228 6.059c-.395 0-.818.169-1.241.254-.424.084-.395 0-.367-.339l-.085-2ZM27.174 4.932A6.932 6.932 0 0 1 32.818.056a6.723 6.723 0 0 1 4.672.953 6.708 6.708 0 0 1 2.862 3.81V1.212c0-.818.169-1.043.818-1.071.649-.028 1.157 0 1.185 1.043v9.47c0 .816 0 .675.706.704.705.028.903 0 1.354 0 .452 0 .734-.085.734-.48V1.156c0-.817.197-1.014.987-1.014h5.136c.339 0 .734 0 .847.338.17.435.17.918 0 1.353 0 .253-.452.253-.706.253h-3.837c-.395 0-.508.141-.48.508.028.366 0 1.493 0 2.226 0 .733 0 .423.395.423h3.696c.706 0 .762 0 .762 1.015 0 1.014-.14.789-.762.789h-3.64c-.338 0-.451 0-.451.45v3.41c0 .339 0 .452.451.452h3.782c.592 0 .733 0 .733.732v.367c0 .648-.14.817-.818.817h-9.848c-.706 0-.931-.225-.931-.958V8.568a6.962 6.962 0 0 1-2.822 3.691 6.58 6.58 0 0 1-4.43 1.24 6.89 6.89 0 0 1-5.926-4.903c-.17 0 0 .225 0 .338v3.495c0 .676-.198.845-.96.845s-1.016-.225-1.016-.845V7.666c0-.395 0-.508-.507-.508H19.95c-.395 0-.48 0-.48.48v4.65c0 .394 0 .817-.451.93a1.526 1.526 0 0 1-1.355-.141.817.817 0 0 1-.225-.705V3.241a4.68 4.68 0 0 0-.508 1.099l-3.302 8.23c0 .338-.254.817-.705.789-.452-.028-.593-.48-.734-.874L9.368 4.791 9.2 4.509 7.901 7.863l-1.919 4.82c-.141.31-.282.676-.677.676-.395 0-.536-.338-.65-.677-1.41-3.86-2.82-7.694-4.204-11.527C.151.535.376.197 1.13.141c1.044-.141 1.1 0 1.439.986L5.22 8.455c.02.142.09.272.198.366a213.606 213.606 0 0 1 2.229-5.636c.31-.818.649-1.635.988-2.452 0-.31.282-.62.62-.62.339 0 .537.31.65.62.93 2.564 1.89 5.1 2.821 7.637.055.191.141.372.254.536l1.129-3.129c.762-1.662 1.41-3.297 2.032-4.932a.93.93 0 0 1 .987-.704c.48.028.96.028 1.44 0 .648 0 .902.282.902.93v3.72c0 .366 0 .48.452.48h4.797c.367 0 .508 0 .48-.48V1.043c0-.677.254-.902 1.015-.902.762 0 .96.169.96.873v3.918ZM38.46 6.764A4.787 4.787 0 0 0 35.6 2.006a4.802 4.802 0 0 0-6.451 2.815 4.785 4.785 0 0 0-.253 1.943 4.787 4.787 0 0 0 1.25 3.167 4.799 4.799 0 0 0 3.04 1.54 4.69 4.69 0 0 0 5.014-2.72 4.674 4.674 0 0 0 .403-1.987h-.14Z"/><path d="M33.213 22.997c.14 1.635.31 3.185.395 4.763.076.419.123.843.14 1.268 0 0 0 .282.17.282s.198-.14.226-.253a6.446 6.446 0 0 0 .17-1.635c.169-1.212.225-2.424.31-3.664a1.07 1.07 0 0 1 .225-.676c0 1.07.198 2.057.283 3.015.084.958.254 1.888.282 2.819 0 .169 0 .394.282.394s.198-.197.198-.366l.253-3.129a16.89 16.89 0 0 0 0-2.395s0-.254.142-.254c.14 0 0 0 0 .254l.761 4.763v.93a.225.225 0 0 0 .226.197l.141-.197a2.332 2.332 0 0 0 0-.62c0-1.748.31-3.467.282-5.214 0 0 0-.17.17-.254 0 .564.254 1.1.338 1.663.226 1.325.48 2.678.621 4.03.315 1.683.475 3.39.48 5.101a3.602 3.602 0 0 1-1.1 2.565 3.636 3.636 0 0 0-1.214 2.818c0 2.199.254 4.397.197 6.623 0 .423 0 .62-.564.62a14.297 14.297 0 0 0-1.552 0c-.451 0-.592 0-.62-.62 0-2.282.197-4.565.169-6.848a2.815 2.815 0 0 0-.903-2.114 4.226 4.226 0 0 1-1.496-2.508 10.219 10.219 0 0 1 0-3.072c0-.902 0-1.776.17-2.678.169-.901.31-2.564.507-3.86 0-.395 0-.818.17-1.212a.618.618 0 0 1 .14-.536ZM49.607 52.871a3.106 3.106 0 0 1-3.584.339 2.566 2.566 0 0 1-1.326-1.804c0-.338-.197-.507-.592-.507H40.04c-.451 0-.536 0-.338.507a2.199 2.199 0 0 0 2.62 1.113c.33-.102.63-.281.879-.521a1.551 1.551 0 0 1 1.27-.338c.197 0 .253 0 .14.281a3.271 3.271 0 0 1-2.652 1.635 3.559 3.559 0 0 1-2.596-.705 3.073 3.073 0 0 1-.787-3.603c.184-.401.453-.758.787-1.047a3.445 3.445 0 0 1 5.361 1.297 3.155 3.155 0 0 1 2.088-1.973 3.108 3.108 0 0 1 2.822.704v-2.818c0-.366-.366-.169-.536-.197-.17-.028-.564 0-.592-.338-.029-.339 0-.62.508-.564h1.382c.424 0 .508.14.508.507v7.102c0 .451 0 .592.508.536.508-.056.48 0 .48.423 0 .422 0 .479-.452.479h-1.213c-.395.169-.734.169-.62-.508Zm0-2.31a1.857 1.857 0 0 0-1.14-1.918 1.95 1.95 0 0 0-2.569 1.171c-.085.249-.12.512-.1.775a1.915 1.915 0 0 0 1.904 2.148 1.921 1.921 0 0 0 1.833-1.347c.08-.259.105-.532.072-.801v-.029Zm-8.07-.564h1.636c.282 0 .339 0 .226-.31a1.804 1.804 0 0 0-1.58-1.184c-1.185 0-1.947.395-2.201 1.184 0 .282 0 .31.254.31h1.665ZM28.98 47.46a3.135 3.135 0 0 1 3.104 1.973 3.012 3.012 0 0 1-1.704 3.948c-.499.194-1.04.252-1.57.167a2.824 2.824 0 0 1-3.019-2.31 3.097 3.097 0 0 1 2.258-3.693c.3-.094.618-.123.931-.084Zm0 1.043a1.92 1.92 0 0 0-2.088 2.03 2.07 2.07 0 0 0 1.189 1.974 2.077 2.077 0 0 0 2.959-1.777 1.858 1.858 0 0 0-1.975-2.227h-.085ZM33.41 47.573h.96c.254 0 .536 0 .508.395-.029.394 0 .676-.452.62-.451-.056-.395 0-.282.338l.988 2.34s0 .253.169.225a.31.31 0 0 0 .197-.254c.339-.733.65-1.465 1.016-2.198.367-.733 0-.48-.254-.451-.254.028-.536-.226-.508-.62.029-.395 0-.395.424-.395h2.172c.254 0 .395 0 .34.338-.057.339.197.677-.255.677-.451 0-.705.31-.903.704-.564 1.297-1.157 2.565-1.721 3.861a.592.592 0 0 1-.65.423c-.338 0-.422-.197-.535-.45a1612.94 1612.94 0 0 1-1.75-4.172c0-.282-.226-.394-.536-.366-.31.028-.367-.395-.395-.677-.028-.281.226-.338.451-.338h1.016Z"/><path d="M23.844 48.419a2.454 2.454 0 0 1 1.947-.959c.339 0 .48 0 .423.423-.056.423.17.733-.423.733a1.806 1.806 0 0 0-1.467.564 1.212 1.212 0 0 0-.395.901v1.748c0 .563 0 .733.705.704.706-.028.452 0 .452.451s0 .48-.452.48h-2.596c-.367 0-.423 0-.423-.451s0-.536.423-.451c.423.084.649 0 .62-.62v-2.819c0-.366 0-.535-.479-.479-.48.056-.564 0-.564-.535 0-.536.254-.48.592-.48.357.029.716.029 1.073 0 .423 0 .62 0 .536.536-.085.535.028.113.028.254ZM49.777 16.684a1.043 1.043 0 0 1-1.827.846 1.042 1.042 0 0 1-.233-.846.957.957 0 0 1 1.044-1.014.96.96 0 0 1 1.016 1.014Zm-1.185 0c.169.282-.17.451 0 .649.169.197.282 0 .338 0 .057 0 .057-.423-.338-.423v-.226Zm-.395-.535a.65.65 0 0 0 0 .93v-.93Zm1.1 0v.817a.507.507 0 0 0 0-.648v-.169Z"/></g><defs><clipPath id="a"><path fill="#fff" d="M0 0h52.203v56H0z"/></clipPath></defs></svg>